<?xml version="1.0" encoding="UTF-8"?>
<svg width="512" height="512" viewBox="0 0 128 128" xmlns="http://www.w3.org/2000/svg">
  <path d="M38.089 77.466l-11.4 4.896 10.559 4.514 12.241-4.514-11.4-4.896zm-17.138 6.12l-.382 22.034 16.679 7.345V90.089l-16.297-6.503zm34.276 0l-15.073 5.739V110.9l15.073-6.121V83.586zm17.979-68.551L61.73 19.931l10.635 4.515 12.241-4.515-11.4-4.896zm-15.914 6.503v22.034l14.231 4.132.459-20.046-14.69-6.12zm31.881 1.839l-15.073 5.739v21.657l15.073-6.121V23.377zM78.021 43.77l-11.4 4.896 10.558 4.514 12.241-4.514-11.399-4.896zm-17.138 6.12l-.382 22.034 16.679 7.345V56.393l-16.297-6.503zm34.275 0L80.16 55.628v22.034l15.073-6.121V49.89z" fill="#F90"/>
  <path d="M89.234 52.027c-10.498-7.167-25.437-3.228-25.437-3.228-2.741-17.153-11.247-26.269-11.247-26.269-1.883 2.436-2.751 4.51-2.308 7.478-12.991-2.596-24.123 1.569-24.123 1.569-.126 1.066-.3 2.756 2.032 4.828-8.79 1.627-14.169 7.574-14.169 7.574-2.824 4.807-.532 8.528-.532 8.528 4.346 7.218 15.591 5.423 15.591 5.423 10.068 8.332 22.62 6.622 22.62 6.622 13.127 10.724 22.301 4.56 22.301 4.56 4.18.812 7.618-.753 7.618-.753 11.834-3.956 7.661-7.895 7.661-7.895a32.305 32.305 0 0 0-7.657-8.412" fill="#FFF"/>
  <path d="M43.045 62.446l-2.683-1.327-.153-2.992 2.836 1.27v3.049m9.177-5.185l-2.708-1.277-.153-2.94 2.861 1.175v3.042m9.914-5.338l-2.539-1.312-.052-2.674 2.591 1.222v2.764m10.024-5.267l-2.518-1.28-.026-2.58 2.544 1.196v2.664m9.385-5.144l-2.574-1.27-.052-3.072 2.626 1.243v3.099M64.52 20.345l-2.2-1.135.153-2.156 2.047 1.11v2.18M54.644 25.5l-2.391-1.085-.026-2.434 2.417 1.085v2.434m-10.1 5.242l-2.548-1.204-.026-2.617 2.574 1.196v2.625m21.623-10.59l-2.097-1.05.087-2.04 2.01 1.042v2.048m-10.86 5.257l-2.223-1.051.076-2.26 2.147 1.033v2.278m-40.28 16.743l-2.097-1.05.087-2.04 2.01 1.042v2.048M8.12 47.447l-2.06-1-.077-2.09 2.137 1.05v2.04M18.22 42.358l-2.177-1.118.013-2.048 2.164 1.093v2.073m-9.72 5.156l-2.068-1.042.26-2.057 1.842 1.05v2.049" fill="#F90"/>
  <path d="M117.67 85.118c-.051 0-.064.013-.115.013-.025 0-.038-.013-.064-.013h-.102v.409h.09v-.153h.013c.013 0 .025 0 .04.013.011 0 .24.013.38.013.14.051.064.114.088.127h.104c-.051-.038-.076-.089-.102-.165-.025-.064-.115-.064-.14-.09.076-.026.153-.064.153-.153 0-.06-.04-.09-.102-.103m-.013.217c-.05 0-.076 0-.114-.013-.013 0-.025 0-.038-.012h-.025v-.128h.063c.051 0 .09 0 .128.013.025.013.05.038.05.064 0 .051-.025.076-.064.076m.115-.332c-.191 0-.344.153-.344.345 0 .19.153.344.344.344.191 0 .345-.153.345-.344 0-.192-.154-.345-.345-.345m0 .74a.397.397 0 0 1-.396-.395c0-.217.178-.395.396-.395s.396.178.396.395a.397.397 0 0 1-.396.396M96.842 91.477h-2.23l-.038-.115c-.958.675-1.777 1.01-3.163 1.01-1.66 0-2.5-.958-2.5-2.282 0-1.198.64-1.95 1.957-2.293 1.097-.293 2.397-.344 3.658-.42v-.396c0-.6.038-1.045-.243-1.466-.243-.37-.7-.522-1.108-.522-.754 0-1.428.383-1.594 1.185-.029.166-.115.33-.306.34l-1.71-.191c-.153-.038-.319-.166-.28-.408.42-2.205 2.422-2.87 4.212-2.87 2.246 0 3.938 1.312 3.938 3.964v3.581c0 1.08.45 1.556.872 2.143.153.217.178.472-.07.637-.46.382-.957.879-1.294 1.198l-.102-.095zm-2.916-3.938v-.791c-1.505 0-3.088.319-3.088 2.054 0 .893.46 1.499 1.25 1.499.58 0 1.108-.356 1.44-.945.407-.715.398-1.39.398-1.817zM50.608 91.477h-2.23l-.038-.115c-.957.675-1.777 1.01-3.163 1.01-1.66 0-2.5-.958-2.5-2.282 0-1.198.644-1.95 1.956-2.293 1.1-.293 2.398-.344 3.659-.42v-.396c0-.6.038-1.045-.243-1.466-.243-.37-.701-.522-1.109-.522-.753 0-1.428.383-1.594 1.185-.038.166-.115.33-.306.34l-1.71-.191c-.152-.038-.318-.166-.28-.408.42-2.205 2.423-2.87 4.212-2.87 2.247 0 3.939 1.312 3.939 3.964v3.581c0 1.08.45 1.556.87 2.143.154.217.18.472-.063.637-.461.382-.958.879-1.301 1.198l-.1-.095zm-2.916-3.938v-.791c-1.504 0-3.087.319-3.087 2.054 0 .893.46 1.499 1.249 1.499.58 0 1.11-.356 1.44-.945.408-.715.398-1.39.398-1.817zM104.52 83.03c0-.855-.013-1.56-.485-2.321-.317-.498-.823-.804-1.389-.804-1.03 0-1.634.957-1.634 2.372 0 1.39.603 2.36 1.633 2.36 1.135 0 1.875-.957 1.875-2.385v-.178zm2.9 7.938c-.193.166-.473.178-.7.064-.98-.815-1.16-.957-1.696-1.58-1.62 1.645-2.769 2.142-4.864 2.142-2.486 0-4.415-1.534-4.415-4.593 0-2.384 1.3-4.021 3.139-4.82 1.607-.7 3.836-.826 5.519-.968v-.407c0-.701.051-1.518-.357-2.13-.351-.541-1.034-.77-1.633-.77-1.11 0-2.106.57-2.347 1.747-.053.267-.242.532-.51.542l-2.835-.305c-.242-.051-.51-.242-.44-.6.652-3.454 3.773-4.5 6.569-4.5 1.442 0 3.328.382 4.467 1.48 1.44 1.35 1.3 3.15 1.3 5.11v4.618c0 1.39.58 2.004 1.12 2.756.192.267.242.586-.012.774-.618.515-1.708 1.465-2.308 2.003l-.04-.051zm-30.225-4.237v-2.437c0-1.747.128-3.353-.753-4.551-.716-.983-1.863-1.326-2.92-1.326-1.925 0-3.05 1.467-3.05 3.632 0 2.142 1.073 3.366 3.05 3.366 1.248 0 2.116-.38 2.974-1.237.268.816.307.907.699 1.553zm2.9 2.437h-2.924c-.268-.14-.357-.344-.382-.523-.957.65-1.634.92-3.111.92-1.887 0-3.37-1.339-3.37-4.02 0-2.09 1.135-3.148 2.73-3.772 1.557-.58 3.735-.68 5.418-.845v-.383c0-.689.051-1.518-.357-2.117-.357-.536-1.021-.764-1.621-.764-1.097 0-2.105.561-2.334 1.727-.051.268-.217.536-.51.548l-2.822-.306c-.242-.05-.512-.242-.447-.6.664-3.48 3.633-4.365 6.416-4.365 1.39 0 3.21.368 4.312 1.416.387.358.624.74.854 1.198.23.458.306 1.033.306 1.619v2.934c0 1.11.46 1.608.894 2.206.191.268.23.593-.026.783-.606.51-1.683 1.46-2.27 1.99l-.153-.1zm-16.78-9.864c-.803 0-1.403.535-1.403 1.95v3.939c0 1.173.498 1.938 1.428 1.938.932 0 1.508-.714 1.508-1.938v-3.632c0-1.094-.447-2.257-1.532-2.257zm-.128-2.92c2.848 0 4.39 2.448 4.39 5.57 0 3.075-1.7 5.414-4.39 5.414-2.808 0-4.34-2.448-4.34-5.545 0-3.087 1.671-5.438 4.34-5.438zM54.36 76.248c-.816 0-1.428.535-1.428 1.963v8.783h-2.9v-11.72h2.784l.115.726c.46-.624 1.377-.917 2.09-.917.98 0 1.887.36 2.499 1.466.6-.943 1.44-1.466 2.615-1.466.778 0 1.518.18 2.133.778.804.765.7 1.888.7 2.947v8.187h-2.913v-8.136c0-.523.051-1.834-.089-2.079-.23-.382-.704-.494-1.097-.494-.46 0-.84.306-1.073.765-.293.56-.267 1.58-.267 2.079v7.865h-2.9v-8.136c0-1.39.229-2.844-1.158-2.844zM28.91 76.248c-.816 0-1.428.535-1.428 1.963v8.783h-2.9v-11.72h2.783l.115.726c.46-.624 1.377-.917 2.09-.917.97 0 1.888.36 2.5 1.466.61-.943 1.44-1.466 2.615-1.466.778 0 1.518.18 2.133.778.803.765.7 1.888.7 2.947v8.187h-2.912v-8.136c0-.523.05-1.834-.09-2.079-.242-.382-.714-.494-1.097-.494-.459 0-.84.306-1.072.765-.306.56-.28 1.58-.28 2.079v7.865h-2.9v-8.136c.013-1.39.242-2.844-1.158-2.844zm-10.405.191c-4.39 0-4.6 5.968-4.6 9.685 0 3.67.178 9.275 4.6 9.275 4.415 0 4.618-6.133 4.618-9.685 0-3.04-.128-9.275-4.618-9.275zm0-2.972c5.94 0 7.913 5.138 7.913 12.593 0 7.518-1.973 12.4-7.913 12.4-5.915 0-7.865-5.1-7.865-12.4 0-7.429 1.95-12.593 7.865-12.593z" fill="#252F3E"/>
</svg>
