<?xml version="1.0" encoding="UTF-8"?>
<svg width="512" height="512" viewBox="0 0 128 128" xmlns="http://www.w3.org/2000/svg">
  <path d="M107.7 24.88c-8.64-3.98-17.83-6.88-27.25-8.47a.63.63 0 00-.66.31c-.56 1-.18 2.42-.96 3.54 3.87.64 14.86 2.48 19.76 4.66a.67.67 0 01.3.9.66.66 0 01-.9.3c-18.83-8.8-38.26-9.67-58.38-2.73a.68.68 0 01-.88-.33.67.67 0 01.33-.88c12-4.5 23.98-6.79 36.28-6.79 9.78 0 19.76 1.45 29.77 4.38.1.03.18.09.24.17.06.08.1.17.13.26.02.1.02.2 0 .3-.03.1-.08.19-.15.26a.7.7 0 01-.26.14.68.68 0 01-.3 0 .75.75 0 01-.26-.13.69.69 0 01-.18-.24.66.66 0 010-.29l.06-.04c-11.2-3.21-22.7-4.79-34.38-4.6-10.48.18-20.93 1.85-30.89 5.14-2.7.9-7.67 3.07-16.55 8.89A.67.67 0 2022 29.2c11.3-6.9 20.84-11.1 22.74-12.05 9.5-4.13 19.4-6.95 29.66-8.12 9.5-1.08 19.3-.83 28.8.87 8.47 1.5 16.7 4.04 24.37 7.76a.67.67 0 01.32.47c.81 8.73 3.14 32.08.31 56.14-2 13.22-9.67 21.79-23.02 26.3a.67.67 0 01-.52-.05.65.65 0 01-.33-.4c-1.7-5.4-4.06-10.48-7.01-15.25a.68.68 0 01.25-.92.67.67 0 01.92.24c2.4 3.87 4.5 7.78 6.33 12.05 10.5-4.09 16.79-10.86 18.52-22.06 2.75-22.76.51-45.13-.09-52.51-7.22-3.14-14.86-5.4-22.62-6.62-9.14-1.44-18.41-1.62-27.56-.53-9.86 1.17-19.4 3.9-28.45 7.85-2.84 1.49-14.2 7.86-20.33 11.35v51.84c6.23 4.03 12.2 7.52 17.92 10.11 13.3 6.02 27.48 9.5 41.87 10.11 10.18.48 20.48-.63 30.35-3.42a.67.67 0 01.82.47.68.68 0 01-.48.82c-10.14 2.87-20.7 4.03-31.13 3.51-14.78-.69-29.31-4.29-42.96-10.48-6.01-2.73-12.26-6.4-18.8-10.63a.67.67 0 01-.3-.56V35.62c0-.2.09-.4.24-.52 3.87-3.21 17.74-13.3 21.68-15.5 9.32-5.14 19.4-8.91 29.83-11.17 9.32-1.98 18.95-2.39 28.45-1.23 8.26.96 16.37 2.99 24.08 6.05.1.04.19.1.25.19a.69.69 0 01.1.59c-.02.1-.06.19-.12.27z" fill="#5865F2"/>
  <path d="M73.23 69.66c-2.96 0-5.31-2.62-5.31-5.85s2.35-5.85 5.31-5.85c2.97 0 5.31 2.62 5.31 5.85s-2.26 5.85-5.31 5.85zm-18.53 0c-2.96 0-5.31-2.62-5.31-5.85s2.35-5.85 5.31-5.85c2.96 0 5.31 2.62 5.31 5.85 0 3.23-2.35 5.85-5.31 5.85z" fill="#5865F2"/>
  <path d="M101.84 100.44c-17.12 0-30.95-5.41-40.72-16.06a.68.68 0 01.08-.95.67.67 0 01.95.08c9.32 10.2 22.59 15.33 39.05 15.33 2.45 0 5.01-.13 7.63-.4a.67.67 0 01.73.6.68.68 0 01-.61.74c-2.36.25-4.74.38-7.11.38v.28zm-72.26-7.7a.67.67 0 01-.48-.2.68.68 0 010-.96c1.99-1.98 4.2-3.7 6.6-5.14a.67.67 0 01.93.2.68.68 0 01-.19.94c-2.3 1.37-4.41 3-6.3 4.88a.67.67 0 01-.48.2l-.08.08z" fill="#5865F2"/>
</svg>
