<?xml version="1.0" encoding="UTF-8"?>
<svg width="512" height="512" viewBox="0 0 128 128" xmlns="http://www.w3.org/2000/svg">
  <g fill="none">
    <path fill="#EA4335" d="M80.6 40.3h.4l14.1-14.1.2-.2v-.2c0-.1 0-.1-.1-.2-.1-.1-.1-.1-.2-.1h-28l-.2.2v13.9c0 .2.2.4.4.4l13 .3Z" />
    <path fill="#4285F4" d="M33.1 75.3h13.8c.2 0 .4-.2.4-.4V61.1c0-.2-.2-.4-.4-.4H9.8v.1l0 .1 10.4 14.4Z" />
    <path fill="#34A853" d="M47.3 40.3h-14c-.2 0-.4.2-.4.4V61c0 .2.2.4.4.4h13.8l.2-.2V40.7c0-.2-.2-.4-.4-.4" />
    <path fill="#FBBC05" d="M33.3 88h13.8c.2 0 .4-.2.4-.4V74.2c0-.2-.2-.4-.4-.4H33.1l-.2.2V88Z" />
    <path fill="#4285F4" d="M9.8 60.4h37.1c.2 0 .4-.2.4-.4V40.8c0-.2-.2-.4-.4-.4H21.8l-.1.1L9.8 60.3l-.1.1Z" />
    <path fill="#5F6368" d="M118.5 47.5h-3.2v-.7h7.2v.7h-3.2v8.8h-.9l.1-8.8Zm-5.6-.7h.9l4 8.3v-8.3h.8v9.5h-.9l-4-8.3v8.3h-.8v-9.5Z" />
    <path fill="#5F6368" d="M98.3 59.8c-5.3 0-9.5 4-9.5 9 0 5.1 4.2 9 9.5 9 5.2 0 9.5-3.9 9.5-9 0-5-4.3-9-9.5-9m0 14.5c-2.9 0-5.3-2.2-5.3-5.5 0-3.2 2.4-5.5 5.3-5.5s5.3 2.2 5.3 5.5c0 3.3-2.4 5.5-5.3 5.5" />
    <path fill="#5F6368" d="M72.1 59.8c-5.3 0-9.5 4-9.5 9 0 5.1 4.3 9 9.5 9 5.3 0 9.5-3.9 9.5-9 0-5-4.2-9-9.5-9m0 14.5c-2.9 0-5.3-2.2-5.3-5.5 0-3.2 2.4-5.5 5.3-5.5s5.3 2.2 5.3 5.5c0 3.3-2.4 5.5-5.3 5.5" />
    <path fill="#5F6368" d="M44.8 68.8c0-5.5 4.3-9 9.3-9 2.8 0 4.8 1.1 6.2 2.5l-1.7 1.7c-1.1-1-2.5-1.8-4.5-1.8-3.4 0-5.9 2.7-5.9 6.5 0 3.8 2.5 6.5 5.9 6.5 2.4 0 3.8-1 4.7-1.8.7-.7 1.2-1.8 1.4-3.2h-6.1v-2.3h8.6c.1.5.1.9.1 1.5 0 1.9-.5 4.3-2.2 6-1.6 1.7-3.7 2.6-6.5 2.6-5 0-9.3-3.5-9.3-9" />
    <path fill="#5F6368" d="M115.1 77.1v-16h4c1.9 0 3.5.6 4.5 1.8 1 1.1 1.6 2.8 1.6 4.8v2.8c0 2-.5 3.7-1.6 4.8-1 1.1-2.5 1.8-4.4 1.8h-4.1Zm2.3-14v12h1.7c1.3 0 2.2-.4 2.8-1.2.6-.8.9-2 .9-3.5v-2.7c0-1.5-.3-2.7-.9-3.5-.6-.8-1.6-1.2-2.8-1.2l-1.7.1Z" />
  </g>
</svg>
