<?xml version="1.0" encoding="UTF-8"?>
<svg width="512" height="512" viewBox="0 0 128 128" xmlns="http://www.w3.org/2000/svg">
  <path d="M116.3 64.87c0-23.57-19.1-42.67-42.67-42.67-23.57 0-42.67 19.1-42.67 42.67a42.62 42.62 0 0037.3 42.32V77.5h-8.34V66.6h8.34v-8.83c0-9.83 5.85-15.26 14.8-15.26 4.3 0 8.8.76 8.8.76v9.67h-4.95c-4.87 0-6.39 3.03-6.39 6.13v7.36h10.87l-1.74 10.91h-9.13v29.7a42.87 42.87 0 0028.78-10.72A42.65 42.65 0 00116.3 64.87z" fill="#1877F2"/>
  <path d="M87.94 77.5l1.73-10.9H78.8v-7.35c0-3.1 1.52-6.14 6.4-6.14h4.95v-9.67s-4.5-.76-8.8-.76c-8.95 0-14.8 5.42-14.8 15.26v8.82h-8.35v10.91h8.35v29.7a33.5 33.5 0 005.24.41c1.79 0 3.54-.15 5.25-.41V77.5h9.13z" fill="#fff"/>
</svg>
