<?xml version="1.0" encoding="UTF-8"?>
<svg width="512" height="512" viewBox="0 0 128 128" xmlns="http://www.w3.org/2000/svg">
  <path d="M64 128C28.8 128 0 99.2 0 64S28.8 0 64 0s64 28.8 64 64-28.8 64-64 64zm0-122.7C31.7 5.3 5.3 31.7 5.3 64s26.4 58.7 58.7 58.7 58.7-26.4 58.7-58.7S96.3 5.3 64 5.3z" fill="#fff"/>
  <path d="M8.3 119.9l8.1-29.5c-5-8.6-7.6-18.5-7.6-28.4C8.9 33.3 33.1 9 62 9s53.1 24.3 53.1 53.1-24.3 53.1-53.1 53.1c-9.2 0-18.3-2.3-26.4-6.7l-27.3 11.4zm53.8-14.5c8.6 0 17-2.3 24.3-6.7l1.7-1 10.4 3.9-4-11.4.8-1.3c4.8-7.7 7.3-16.6 7.3-25.8 0-26.8-21.8-48.6-48.6-48.6S5.4 38.3 5.4 65.1c0 9.6 2.8 18.9 8.1 26.8l1.7 2.6-7 25.5 23.9-8.6 1.8.9c8.6 4.5 18.1 6.6 27.4 6.6 0 .1 0 .1 0 .1" fill="#fff"/>
  <path d="M62.1 18.5C35.8 18.5 14.4 39.9 14.4 66.2c0 9.3 2.6 18.3 7.5 26.1l1.2 1.9-4.9 17.9 18.5-6.7 1.9 1.1c7.6 4.5 16.3 6.8 25.3 6.8 26.3 0 47.7-21.4 47.7-47.7.2-25.9-21.2-47.1-47.5-47.1zm28.6 68.2c-1.2 3.5-7.1 6.8-10 7.1-2.4.3-5.6.5-9.1-.5-1.9-.5-4.4-1.2-7.6-2.4-13.4-5.1-22.6-17-23.3-17.8-.7-.8-5.9-7.8-5.9-14.9s3.7-10.5 5-12c1.3-1.4 2.8-1.8 3.7-1.8.9 0 1.8 0 2.6.1 1 0 2.1.2 3.2 2.4.4.8 1.9 4.1 2.6 5.5.7 1.4 1.2 2.6.9 4s-.5 2.1-1.1 3c-.6.9-1.1 1.5-1.7 2.4-.6.9-1.2 1.8-.5 3.5.7 1.7 3 7.2 6.5 11.7 4.5 5.8 8.3 7.6 9.5 8.4 1.2.8 1.9.7 2.6 0 .7-.7 3.1-3.6 3.9-4.8.8-1.2 1.7-1 2.8-.6 1.2.4 7.3 3.4 8.6 4.1 1.3.6 2.1.9 2.4 1.4.3.7.3 3.1-.9 6.5z" fill="#25D366"/>
</svg>
